<svg xmlns="http://www.w3.org/2000/svg" width="39.095" height="39.095" viewBox="0 0 39.095 39.095">
  <g id="Group_114661" data-name="Group 114661" transform="translate(-859.5 -7439.676)">
    <path id="Path_187214" data-name="Path 187214" d="M19.547,0A19.547,19.547,0,1,1,0,19.547,19.547,19.547,0,0,1,19.547,0Z" transform="translate(859.5 7439.676)" fill="#ffffff"/>
    <g id="Group_7645" data-name="Group 7645" transform="translate(869.5 7449.279)">
      <path id="Path_54243" data-name="Path 54243" d="M-5448.548,1294.426h9.9c.049.011.1.026.145.033a4.977,4.977,0,0,1,4.233,3.418,9.13,9.13,0,0,1,.272,1.2v9.9c-.011.054-.029.108-.035.163a5.05,5.05,0,0,1-4.92,4.481q-4.65.027-9.3-.007a4.885,4.885,0,0,1-1.45-.249,5.017,5.017,0,0,1-3.5-4.834q-.007-4.5,0-9c0-.193.013-.387.031-.58a5.049,5.049,0,0,1,3.559-4.3C-5449.262,1294.551-5448.9,1294.5-5448.548,1294.426Zm11.175,9.61q0-1.4,0-2.794a3.372,3.372,0,0,0-3.44-3.441q-2.784,0-5.567,0a3.373,3.373,0,0,0-3.442,3.44q0,2.784,0,5.568a3.374,3.374,0,0,0,3.439,3.442q2.785,0,5.569,0a3.373,3.373,0,0,0,3.441-3.44Q-5437.372,1305.424-5437.373,1304.036Z" transform="translate(5453.2 -1294.426)" fill="#b37e46"/>
      <path id="Path_54244" data-name="Path 54244" d="M-5323.227,1419.268q0,1.4,0,2.793a2.251,2.251,0,0,1-2.312,2.307q-2.794,0-5.586,0a2.251,2.251,0,0,1-2.3-2.3q0-2.8,0-5.6a2.251,2.251,0,0,1,2.3-2.3q2.8,0,5.6,0a2.249,2.249,0,0,1,2.293,2.288C-5323.225,1417.394-5323.227,1418.331-5323.227,1419.268Zm-5.11,2.813a2.818,2.818,0,0,0,2.823-2.8,2.817,2.817,0,0,0-2.8-2.823,2.818,2.818,0,0,0-2.823,2.8A2.819,2.819,0,0,0-5328.337,1422.081Zm3.228-5.476a.569.569,0,0,0,.569-.55.57.57,0,0,0-.546-.574.568.568,0,0,0-.578.559A.568.568,0,0,0-5325.109,1416.605Z" transform="translate(5337.929 -1409.668)" fill="#b37e46"/>
      <path id="Path_54245" data-name="Path 54245" d="M-5239.194,1506.721a1.69,1.69,0,0,1-1.7,1.681,1.69,1.69,0,0,1-1.671-1.693,1.689,1.689,0,0,1,1.7-1.681A1.689,1.689,0,0,1-5239.194,1506.721Z" transform="translate(5250.482 -1497.115)" fill="#b37e46"/>
    </g>
  </g>
</svg>
